<?xml version="1.0" encoding="UTF-8" standalone="no"?>
<!-- Created with Inkscape (http://www.inkscape.org/) -->

<svg
   width="526"
   height="278"
   viewBox="0 0 139.17083 73.554492"
   version="1.1"
   id="svg874"
   inkscape:export-filename="logoB.png"
   inkscape:export-xdpi="96"
   inkscape:export-ydpi="96"
   inkscape:version="1.4.2 (ebf0e940d0, 2025-05-08)"
   sodipodi:docname="logoB.svg"
   xmlns:inkscape="http://www.inkscape.org/namespaces/inkscape"
   xmlns:sodipodi="http://sodipodi.sourceforge.net/DTD/sodipodi-0.dtd"
   xmlns="http://www.w3.org/2000/svg"
   xmlns:svg="http://www.w3.org/2000/svg">
  <sodipodi:namedview
     id="namedview876"
     pagecolor="#d2d2d2"
     bordercolor="#000000"
     borderopacity="0.25"
     inkscape:showpageshadow="2"
     inkscape:pageopacity="0.0"
     inkscape:pagecheckerboard="0"
     inkscape:deskcolor="#d1d1d1"
     inkscape:document-units="mm"
     showgrid="false"
     inkscape:zoom="0.78127806"
     inkscape:cx="342.3877"
     inkscape:cy="357.74715"
     inkscape:window-width="2194"
     inkscape:window-height="1205"
     inkscape:window-x="0"
     inkscape:window-y="0"
     inkscape:window-maximized="1"
     inkscape:current-layer="layer1" />
  <defs
     id="defs871" />
  <g
     inkscape:label="Capa 1"
     inkscape:groupmode="layer"
     id="layer1">
    <g
       id="g3260"
       inkscape:export-filename="g3260.png"
       inkscape:export-xdpi="118.16161"
       inkscape:export-ydpi="118.16161"
       transform="matrix(1.3557979,0,0,1.3557979,-82.463138,-185.75361)"
       style="fill:#ffffff">
      <path
         d="m 89.871534,156.50253 h 3.169496 v 19.29254 h -3.169496 z m 0,-7.51031 h 3.169496 v 4.01354 h -3.169496 z"
         id="path3076"
         style="font-size:100px;-inkscape-font-specification:'sans-serif, Normal';stroke-width:0;paint-order:stroke markers fill;fill:#ffffff" />
      <path
         d="m 120.55012,148.99222 h 3.16949 v 26.80285 h -3.16949 z"
         id="path3080"
         style="font-size:100px;-inkscape-font-specification:'sans-serif, Normal';stroke-width:0;paint-order:stroke markers fill;fill:#ffffff" />
      <path
         d="m 139.11917,166.09712 q -3.84129,0 -5.32267,0.8785 -1.48139,0.8785 -1.48139,2.99724 0,1.68809 1.10243,2.68717 1.11965,0.98185 3.03171,0.98185 2.63549,0 4.22021,-1.86035 1.60199,-1.87758 1.60199,-4.97816 v -0.70625 z m 6.32175,-1.30913 v 11.00708 h -3.16947 v -2.92833 q -1.08521,1.75699 -2.70443,2.60104 -1.61917,0.82683 -3.96183,0.82683 -2.9628,0 -4.71978,-1.65365 -1.73979,-1.67087 -1.73979,-4.4614 0,-3.25561 2.17043,-4.90926 2.18761,-1.65364 6.51122,-1.65364 h 4.44418 v -0.31006 q 0,-2.18764 -1.44695,-3.3762 -1.4297,-1.20578 -4.03077,-1.20578 -1.65364,0 -3.22114,0.39619 -1.56753,0.39618 -3.01449,1.18855 v -2.92833 q 1.7398,-0.67179 3.37619,-0.99907 1.63643,-0.34452 3.18675,-0.34452 4.18578,0 6.25284,2.17042 2.06704,2.1704 2.06704,6.58013 z"
         id="path3082"
         style="font-size:100px;-inkscape-font-specification:'sans-serif, Normal';stroke-width:0;paint-order:stroke markers fill;fill:#ffffff" />
      <path
         d="m 151.96939,156.50253 h 3.16949 v 19.29254 h -3.16949 z m 0,-7.51031 h 3.16949 v 4.01354 h -3.16949 z"
         id="path3084"
         style="font-size:100px;-inkscape-font-specification:'sans-serif, Normal';stroke-width:0;paint-order:stroke markers fill;fill:#ffffff" />
      <g
         id="g3202"
         style="fill:#ffffff">
        <path
           id="path3074"
           style="font-size:100px;-inkscape-font-specification:'sans-serif, Normal';stroke-width:0;paint-order:stroke markers fill;fill:#ffffff"
           d="m 69.154952,156.50259 v 2.45722 l 5.023983,6.74119 -5.023983,6.76806 v 3.32589 h 1.269173 l 5.615161,-7.57886 5.615678,7.57886 h 3.737757 l -7.338054,-9.9043 6.976319,-9.38806 h -3.737757 l -5.115967,6.87297 -5.115966,-6.87297 z" />
        <rect
           style="fill:#ffffff;stroke-width:0;paint-order:stroke markers fill"
           id="rect3086"
           width="0.6879167"
           height="34.457268"
           x="69.154999"
           y="145.16501" />
      </g>
      <g
         id="g3212"
         transform="translate(30.16251)"
         style="fill:#ffffff">
        <path
           id="path3208"
           style="font-size:100px;-inkscape-font-specification:'sans-serif, Normal';stroke-width:0;paint-order:stroke markers fill;fill:#ffffff"
           d="m 69.154952,156.50259 v 2.45722 l 5.023983,6.74119 -5.023983,6.76806 v 3.32589 h 1.269173 l 5.615161,-7.57886 5.615678,7.57886 h 3.737757 l -7.338054,-9.9043 6.976319,-9.38806 h -3.737757 l -5.115967,6.87297 -5.115966,-6.87297 z" />
        <rect
           style="fill:#ffffff;stroke-width:0;paint-order:stroke markers fill"
           id="rect3210"
           width="0.6879167"
           height="34.457268"
           x="69.154999"
           y="145.16501" />
      </g>
    </g>
  </g>
</svg>
